<mxfile host="app.diagrams.net" modified="2023-05-29T16:12:35.544Z" agent="Mozilla/5.0 (Windows NT 10.0; Win64; x64) AppleWebKit/537.36 (KHTML, like Gecko) Chrome/113.0.0.0 Safari/537.36" etag="Qwe1RXlQi0tr7lSdd1D0" version="21.3.5" type="device">
  <diagram id="sgB374QQv6Uy8w9FlY6B" name="Page-1">
    <mxGraphModel dx="1290" dy="1283" grid="1" gridSize="10" guides="1" tooltips="1" connect="1" arrows="1" fold="1" page="0" pageScale="1" pageWidth="827" pageHeight="1169" background="none" math="0" shadow="0">
      <root>
        <mxCell id="0" />
        <mxCell id="1" parent="0" />
        <mxCell id="node14" value="&lt;p style=&quot;margin:0px;margin-top:4px;text-align:center;&quot;&gt;&lt;b&gt;Activity&lt;/b&gt;&lt;/p&gt;&lt;hr size=&quot;1&quot;&gt;&lt;p style=&quot;margin:0 0 0 4px;line-height:1.6;&quot;&gt;- id: int&lt;br&gt;- typeOfActivity: TypeOfActivity&lt;br&gt;- count: AtomicInteger&lt;br&gt;- name: String&lt;br&gt;- pricePerPerson: int&lt;/p&gt;&lt;hr size=&quot;1&quot;&gt;&lt;p style=&quot;margin:0 0 0 4px;line-height:1.6;&quot;&gt;+&amp;nbsp;getAllActivities&lt;span style=&quot;background-color: initial;&quot;&gt;(): List&amp;lt;Activity&amp;gt;&lt;/span&gt;&lt;/p&gt;&lt;p style=&quot;margin:0 0 0 4px;line-height:1.6;&quot;&gt;&lt;br&gt;&lt;/p&gt;" style="verticalAlign=top;align=left;overflow=fill;fontSize=14;fontFamily=Helvetica;html=1;rounded=0;shadow=0;comic=0;labelBackgroundColor=none;strokeWidth=1;" parent="1" vertex="1">
          <mxGeometry x="990" width="220" height="200" as="geometry" />
        </mxCell>
        <mxCell id="node9" value="&lt;p style=&quot;margin:0px;margin-top:4px;text-align:center;&quot;&gt;&lt;b&gt;Flight&lt;/b&gt;&lt;/p&gt;&lt;hr size=&quot;1&quot;&gt;&lt;p style=&quot;margin:0 0 0 4px;line-height:1.6;&quot;&gt;- id: int&lt;br&gt;- source: String&lt;br&gt;- pricePerSeat: int&lt;br&gt;- airline: String&lt;br&gt;- destination: String&lt;/p&gt;&lt;hr size=&quot;1&quot;&gt;&lt;p style=&quot;margin:0 0 0 4px;line-height:1.6;&quot;&gt;&lt;/p&gt;+&amp;nbsp;getAllFlights(): List&amp;lt;Flight&amp;gt;" style="verticalAlign=top;align=left;overflow=fill;fontSize=14;fontFamily=Helvetica;html=1;rounded=0;shadow=0;comic=0;labelBackgroundColor=none;strokeWidth=1;" parent="1" vertex="1">
          <mxGeometry x="250" width="191" height="190" as="geometry" />
        </mxCell>
        <mxCell id="node1" value="&lt;p style=&quot;margin:0px;margin-top:4px;text-align:center;&quot;&gt;&lt;b&gt;Hotel&lt;/b&gt;&lt;/p&gt;&lt;hr size=&quot;1&quot;&gt;&lt;p style=&quot;margin:0 0 0 4px;line-height:1.6;&quot;&gt;- id: int&lt;br&gt;&lt;/p&gt;&lt;p style=&quot;margin:0 0 0 4px;line-height:1.6;&quot;&gt;- location: String&lt;br&gt;- rating: HotelRatings&lt;br&gt;- name: String&lt;br&gt;- pricePerRoom: int&lt;br&gt;&lt;/p&gt;&lt;hr size=&quot;1&quot;&gt;&lt;p style=&quot;margin:0 0 0 4px;line-height:1.6;&quot;&gt;+&amp;nbsp;getAllHotels&lt;span style=&quot;background-color: initial;&quot;&gt;(): List&amp;lt;Hotel&amp;gt;&lt;/span&gt;&lt;/p&gt;" style="verticalAlign=top;align=left;overflow=fill;fontSize=14;fontFamily=Helvetica;html=1;rounded=0;shadow=0;comic=0;labelBackgroundColor=none;strokeWidth=1;" parent="1" vertex="1">
          <mxGeometry x="570" width="203" height="200" as="geometry" />
        </mxCell>
        <mxCell id="node17" value="&lt;p style=&quot;margin:0px;margin-top:4px;text-align:center;&quot;&gt;&lt;b&gt;TravelPackage&lt;/b&gt;&lt;/p&gt;&lt;hr size=&quot;1&quot;&gt;&lt;p style=&quot;margin:0 0 0 4px;line-height:1.6;&quot;&gt;- destinationCity: String&lt;/p&gt;&lt;p style=&quot;margin:0 0 0 4px;line-height:1.6;&quot;&gt;- destinationCountry: String&lt;br&gt;- price: int&lt;br&gt;- activityIdsIncluded: List&amp;lt;Activity&amp;gt;&lt;br&gt;- id: int&lt;br&gt;- flightId: int&lt;br&gt;- hotel: List&amp;lt;hotelId&amp;gt;&lt;br&gt;- packageType: PackageType&lt;br&gt;- noOfDays: int&lt;br&gt;&lt;/p&gt;&lt;hr size=&quot;1&quot;&gt;&lt;p style=&quot;margin:0 0 0 4px;line-height:1.6;&quot;&gt;&lt;/p&gt;+ createTravelPackage(TravelPackage): ResponseEntity&amp;lt;String&amp;gt;&lt;br style=&quot;border-color: var(--border-color);&quot;&gt;+ updateTravelPackage(String, TravelPackage): ResponseEntity&amp;lt;String&amp;gt;&lt;br style=&quot;border-color: var(--border-color);&quot;&gt;+ getAllTravelPackages(): ResponseEntity&amp;lt;Iterable&amp;lt;TravelPackage&amp;gt;&amp;gt;&lt;br&gt;+ calculatePriceForPackage(): int&lt;br&gt;+&amp;nbsp;searchTravelPackages&lt;span style=&quot;background-color: initial;&quot;&gt;():&amp;nbsp;&lt;/span&gt;ResponseEntity&amp;lt;Iterable&amp;lt;TravelPackage&amp;gt;&amp;gt;" style="verticalAlign=top;align=left;overflow=fill;fontSize=14;fontFamily=Helvetica;html=1;rounded=0;shadow=0;comic=0;labelBackgroundColor=none;strokeWidth=1;" parent="1" vertex="1">
          <mxGeometry x="430" y="-460" width="460" height="340" as="geometry" />
        </mxCell>
        <mxCell id="node12" value="&lt;p style=&quot;margin:0px;margin-top:4px;text-align:center;&quot;&gt;&lt;b&gt;User&lt;/b&gt;&lt;/p&gt;&lt;hr size=&quot;1&quot;&gt;&lt;p style=&quot;margin:0 0 0 4px;line-height:1.6;&quot;&gt;- id: int&lt;/p&gt;&lt;p style=&quot;margin:0 0 0 4px;line-height:1.6;&quot;&gt;- firstName: String&lt;br&gt;- lastName: String&lt;br&gt;- dateOfBirth: String&lt;br&gt;- email: String&lt;br&gt;- password: String&lt;br&gt;- userType: UserType&lt;br&gt;&lt;/p&gt;&lt;hr size=&quot;1&quot;&gt;&lt;p style=&quot;margin:0 0 0 4px;line-height:1.6;&quot;&gt;+ createUser(User): String&lt;br style=&quot;border-color: var(--border-color);&quot;&gt;+ getAllUsers(): List&amp;lt;User&amp;gt;&lt;br&gt;&lt;/p&gt;&lt;p style=&quot;margin:0 0 0 4px;line-height:1.6;&quot;&gt;+ loginUser(email,password): ResponseEntity&amp;lt;User&amp;gt;&lt;br style=&quot;border-color: var(--border-color);&quot;&gt;&lt;/p&gt;" style="verticalAlign=top;align=left;overflow=fill;fontSize=14;fontFamily=Helvetica;html=1;rounded=0;shadow=0;comic=0;labelBackgroundColor=none;strokeWidth=1;" parent="1" vertex="1">
          <mxGeometry x="1280" y="-460" width="335" height="300" as="geometry" />
        </mxCell>
        <mxCell id="1D9NUXfJLWJdkThkuZuQ-4" value="" style="endArrow=diamondThin;endFill=0;endSize=24;html=1;rounded=0;entryX=0.5;entryY=1;entryDx=0;entryDy=0;" parent="1" target="node17" edge="1">
          <mxGeometry width="160" relative="1" as="geometry">
            <mxPoint x="660" as="sourcePoint" />
            <mxPoint x="660" y="-110" as="targetPoint" />
          </mxGeometry>
        </mxCell>
        <mxCell id="1D9NUXfJLWJdkThkuZuQ-6" value="" style="endArrow=diamondThin;endFill=0;endSize=24;html=1;rounded=0;" parent="1" edge="1">
          <mxGeometry width="160" relative="1" as="geometry">
            <mxPoint x="320" as="sourcePoint" />
            <mxPoint x="430" y="-280" as="targetPoint" />
            <Array as="points">
              <mxPoint x="320" y="-280" />
            </Array>
          </mxGeometry>
        </mxCell>
        <mxCell id="1D9NUXfJLWJdkThkuZuQ-7" value="*" style="text;strokeColor=none;align=center;fillColor=none;html=1;verticalAlign=middle;whiteSpace=wrap;rounded=0;" parent="1" vertex="1">
          <mxGeometry x="350" y="-320" width="60" height="30" as="geometry" />
        </mxCell>
        <mxCell id="1D9NUXfJLWJdkThkuZuQ-10" value="*" style="text;strokeColor=none;align=center;fillColor=none;html=1;verticalAlign=middle;whiteSpace=wrap;rounded=0;" parent="1" vertex="1">
          <mxGeometry x="610" y="-20" width="60" height="30" as="geometry" />
        </mxCell>
        <mxCell id="1D9NUXfJLWJdkThkuZuQ-12" value="1" style="text;strokeColor=none;align=center;fillColor=none;html=1;verticalAlign=middle;whiteSpace=wrap;rounded=0;" parent="1" vertex="1">
          <mxGeometry x="270" y="-20" width="60" height="30" as="geometry" />
        </mxCell>
        <mxCell id="1D9NUXfJLWJdkThkuZuQ-13" value="*" style="text;strokeColor=none;align=center;fillColor=none;html=1;verticalAlign=middle;whiteSpace=wrap;rounded=0;" parent="1" vertex="1">
          <mxGeometry x="610" y="-120" width="60" height="30" as="geometry" />
        </mxCell>
        <mxCell id="1D9NUXfJLWJdkThkuZuQ-14" value="*" style="text;strokeColor=none;align=center;fillColor=none;html=1;verticalAlign=middle;whiteSpace=wrap;rounded=0;" parent="1" vertex="1">
          <mxGeometry x="1090" y="-30" width="60" height="30" as="geometry" />
        </mxCell>
        <mxCell id="1D9NUXfJLWJdkThkuZuQ-18" value="*" style="text;strokeColor=none;align=center;fillColor=none;html=1;verticalAlign=middle;whiteSpace=wrap;rounded=0;" parent="1" vertex="1">
          <mxGeometry x="900" y="-250" width="60" height="30" as="geometry" />
        </mxCell>
        <mxCell id="1D9NUXfJLWJdkThkuZuQ-19" value="*" style="text;strokeColor=none;align=center;fillColor=none;html=1;verticalAlign=middle;whiteSpace=wrap;rounded=0;" parent="1" vertex="1">
          <mxGeometry x="1220" y="-350" width="60" height="30" as="geometry" />
        </mxCell>
        <mxCell id="1D9NUXfJLWJdkThkuZuQ-24" value="" style="endArrow=diamondThin;endFill=0;endSize=24;html=1;rounded=0;" parent="1" edge="1">
          <mxGeometry width="160" relative="1" as="geometry">
            <mxPoint x="1090" y="-1.6699999999999875" as="sourcePoint" />
            <mxPoint x="890" y="-210" as="targetPoint" />
            <Array as="points">
              <mxPoint x="1090" y="-210" />
            </Array>
          </mxGeometry>
        </mxCell>
        <mxCell id="wmezSR5hvT021DANHWbm-1" value="" style="endArrow=classic;html=1;rounded=0;exitX=1;exitY=1;exitDx=0;exitDy=0;entryX=1;entryY=0.416;entryDx=0;entryDy=0;entryPerimeter=0;" edge="1" parent="1" source="1D9NUXfJLWJdkThkuZuQ-19" target="node17">
          <mxGeometry width="50" height="50" relative="1" as="geometry">
            <mxPoint x="880" y="-200" as="sourcePoint" />
            <mxPoint x="930" y="-250" as="targetPoint" />
          </mxGeometry>
        </mxCell>
      </root>
    </mxGraphModel>
  </diagram>
</mxfile>
